PathFileType	4	(X/Y/Z)	/Users/itak/Documents/Research/Walk-IL/dataset/trc/00174_00008.trc
DataRate	CameraRate	NumFrames	NumMarkers	Units	OrigDataRate	OrigDataStartFrame	OrigNumFrames
100.000000	100.000000	4	53	mm	100.000000	230	614
Frame#	Time	RPSI			LPSI			L3			STRN			T10			C7			CLAV			RBAK			LBAK			LSHO			LUPA			LAEL			LAOL			LWTS			LWPS			LFRA			LIFD			LHPS			LHTS			RSHO			RUPA			RAEL			RAOL			RWTS			RWPS			RFRA			RIFD			RHTS			RHPS			RBHD			LFHD			RFHD			LBHD			LHIP			RHIP			RASI			LASI			LKNE			LTHI			LANK			LTIP			LTOE			LMT1			LMT5			LHEE			RKNE			RTHI			RANK			RTIP			RTOE			RMT1			RMT5			RHEE			
		X1	Y1	Z1	X2	Y2	Z2	X3	Y3	Z3	X4	Y4	Z4	X5	Y5	Z5	X6	Y6	Z6	X7	Y7	Z7	X8	Y8	Z8	X9	Y9	Z9	X10	Y10	Z10	X11	Y11	Z11	X12	Y12	Z12	X13	Y13	Z13	X14	Y14	Z14	X15	Y15	Z15	X16	Y16	Z16	X17	Y17	Z17	X18	Y18	Z18	X19	Y19	Z19	X20	Y20	Z20	X21	Y21	Z21	X22	Y22	Z22	X23	Y23	Z23	X24	Y24	Z24	X25	Y25	Z25	X26	Y26	Z26	X27	Y27	Z27	X28	Y28	Z28	X29	Y29	Z29	X30	Y30	Z30	X31	Y31	Z31	X32	Y32	Z32	X33	Y33	Z33	X34	Y34	Z34	X35	Y35	Z35	X36	Y36	Z36	X37	Y37	Z37	X38	Y38	Z38	X39	Y39	Z39	X40	Y40	Z40	X41	Y41	Z41	X42	Y42	Z42	X43	Y43	Z43	X44	Y44	Z44	X45	Y45	Z45	X46	Y46	Z46	X47	Y47	Z47	X48	Y48	Z48	X49	Y49	Z49	X50	Y50	Z50	X51	Y51	Z51	X52	Y52	Z52	X53	Y53	Z53	

231	2.3	481.0646057128906	1032.6806640625	250.7169036865234	471.0660095214844	1043.924438476562	129.0551300048828	480.824462890625	1076.51904296875	191.5466156005859	757.9905395507812	1270.306640625	167.3462371826172	460.9590148925781	1239.389892578125	181.642578125	543.944091796875	1503.048217773438	159.9435729980469	737.9902954101562	1385.873046875	158.4607543945312	471.8636474609375	1334.15234375	276.3233947753906	531.8951416015625	1477.820190429688	59.34096527099609	607.09033203125	1460.1787109375	-20.10031127929688	576.9076538085938	1328.186767578125	-93.20217895507812	609.474609375	1110.275146484375	-113.4013442993164	558.2599487304688	1089.955810546875	-44.99082183837891	754.2808227539062	901.5481567382812	-64.55295562744141	682.2304077148438	865.1044921875	-112.0106964111328	641.7099609375	1002.063537597656	-122.8838195800781	800.5874633789062	724.4541015625	-34.20233154296875	715.4404907226562	800.5028686523438	-103.3852996826172	780.948974609375	826.3552856445312	-80.89508819580078	615.3019409179688	1479.091674804688	339.7902526855469	594.961669921875	1413.978515625	410.5473327636719	578.1590576171875	1124.126708984375	469.4390258789062	572.0407104492188	1115.434326171875	373.0955505371094	746.1028442382812	919.471923828125	442.8035583496094	675.5835571289062	887.7145385742188	485.9848327636719	610.9481201171875	1052.651245117188	485.1403503417969	798.3743286132812	741.741943359375	413.3619689941406	789.2093505859375	833.4407348632812	449.681884765625	718.3015747070312	811.4165649414062	480.2099304199219	610.9561767578125	1637.681396484375	248.8856506347656	771.2908935546875	1712.547973632812	120.8984451293945	777.202392578125	1689.3349609375	248.4536895751953	595.3662109375	1669.340576171875	115.8537292480469	563.1867065429688	983.7542114257812	0.6258783340454102	640.9481811523438	982.4743041992188	362.0234985351562	716.06298828125	1010.532775878906	300.3721618652344	692.1412353515625	1013.17724609375	41.72359848022461	575.9052734375	480.9475402832031	42.36389923095703	580.8316650390625	626.0279541015625	12.52930164337158	395.4394836425781	41.8328971862793	81.17958831787109	491.5590209960938	261.7608032226562	50.22526550292969	614.355224609375	40.44024276733398	76.22624206542969	574.0106201171875	42.91250610351562	130.3867950439453	496.0411376953125	29.96652412414551	25.85623741149902	354.0770263671875	49.74704360961914	156.1573028564453	836.0432739257812	531.4485473632812	341.5845031738281	748.8975219726562	784.2698364257812	364.9428405761719	884.7755737304688	29.34188842773438	351.1508178710938	884.0654296875	417.1014099121094	330.9804382324219	1095.068115234375	94.99602508544922	325.970703125	1044.055541992188	84.15995025634766	277.7593078613281	998.4747314453125	38.81694793701172	383.6983947753906	833.6278076171875	34.41687393188477	281.7928161621094	
232	2.31	472.7690734863281	1032.926635742188	249.0753631591797	463.1347351074219	1044.070068359375	127.158073425293	472.4713134765625	1076.925659179688	189.7359771728516	750.1680297851562	1270.672729492188	166.4533538818359	452.9394226074219	1239.8330078125	179.4680328369141	536.109130859375	1503.488037109375	157.9776306152344	730.2014770507812	1386.204345703125	157.3563079833984	463.5420532226562	1334.648071289062	274.1381225585938	524.3399658203125	1478.031127929688	57.34891510009766	599.9268798828125	1460.398071289062	-21.78098678588867	570.3873291015625	1328.437255859375	-95.08420562744141	604.4661254882812	1110.739868164062	-115.847541809082	552.7549438476562	1089.84912109375	-48.02497863769531	751.8549194335938	904.2456665039062	-65.42166900634766	680.84228515625	866.5531005859375	-113.5601654052734	638.237548828125	1002.865905761719	-124.9900817871094	800.9699096679688	728.1363525390625	-34.47756958007812	715.1240234375	802.5761108398438	-104.5963668823242	779.9053955078125	829.5580444335938	-81.50753784179688	606.8310546875	1479.494018554688	338.1961975097656	585.984130859375	1414.402221679688	408.8226013183594	567.5784301757812	1124.583251953125	467.6318054199219	562.061279296875	1115.982299804688	371.1846008300781	735.095458984375	919.5667114257812	442.0215148925781	664.2178344726562	887.811279296875	484.591796875	600.0771484375	1052.9521484375	483.513916015625	787.5386352539062	742.0140991210938	412.4454040527344	778.05859375	833.5878295898438	449.0106811523438	706.9306030273438	811.4306640625	478.8854064941406	602.7347412109375	1638.558959960938	246.6262969970703	763.5119018554688	1712.71630859375	118.7542724609375	769.0091552734375	1690.1220703125	246.4697113037109	587.5875244140625	1669.589721679688	113.3917922973633	556.8049926757812	983.8279418945312	-0.368166595697403	631.4356689453125	982.9647216796875	361.4295043945312	707.0100708007812	1011.126647949219	300.1717834472656	684.8118896484375	1013.5029296875	41.38182830810547	572.8547973632812	481.070556640625	42.49538421630859	576.5390014648438	626.14453125	12.23727035522461	395.3206787109375	41.49857330322266	81.44802856445312	490.1993408203125	261.2318725585938	50.59859848022461	614.364990234375	40.40474319458008	76.25832366943359	574.0819702148438	42.76618194580078	130.6403045654297	496.1022033691406	30.20009803771973	26.12283897399902	354.0438842773438	48.7150764465332	156.5339965820312	830.5189208984375	533.2223510742188	341.9712524414062	740.7987670898438	785.4700927734375	365.0844116210938	873.3179321289062	30.6583366394043	350.5569458007812	877.524658203125	418.2077331542969	331.9117126464844	1084.157348632812	95.92047882080078	330.8946228027344	1034.578125	84.68223571777344	281.4042663574219	985.7759399414062	40.05835342407227	386.0892333984375	823.9244995117188	35.72816848754883	279.9090881347656	
233	2.32	464.5311279296875	1033.31396484375	247.5334930419922	455.3273010253906	1044.377319335938	125.407096862793	464.1786499023438	1077.470092773438	188.0512084960938	742.42724609375	1271.180053710938	165.6875762939453	444.9960021972656	1240.462646484375	177.4445190429688	528.3643798828125	1504.111083984375	156.1587219238281	722.4820556640625	1386.673461914062	156.3573150634766	455.2216796875	1335.360595703125	272.1508178710938	516.8603515625	1478.391967773438	55.51172256469727	592.808349609375	1460.732421875	-23.34318733215332	563.7587890625	1328.775512695312	-96.78252410888672	599.187744140625	1111.312622070312	-118.1571884155273	547.165283203125	1089.858032226562	-50.83908081054688	749.0961303710938	907.0353393554688	-66.33984375	679.0526123046875	868.1259155273438	-115.0511856079102	634.4371948242188	1003.77685546875	-126.998291015625	801.023193359375	731.9585571289062	-34.91262817382812	714.4109497070312	804.793212890625	-105.8022003173828	778.4888305664062	832.8998413085938	-82.22453308105469	598.5231323242188	1480.059936523438	336.7376403808594	577.2099609375	1414.978515625	407.2476196289062	557.193115234375	1125.204345703125	465.9204711914062	552.2119750976562	1116.681884765625	369.3879699707031	724.0086669921875	919.6195678710938	441.3140258789062	652.7378540039062	887.9775390625	483.3015747070312	589.3168334960938	1053.403198242188	481.9636535644531	776.3945922851562	742.1852416992188	411.6801452636719	766.7128295898438	833.6597290039062	448.4447631835938	695.359130859375	811.4617919921875	477.6941528320312	594.6068115234375	1639.595825195312	244.5082397460938	755.7125244140625	1713.0751953125	116.650276184082	760.89111328125	1691.12548828125	244.5096130371094	579.7987670898438	1669.9765625	111.085205078125	550.8240356445312	984.0364990234375	-1.08703339099884	622.085205078125	983.5941162109375	360.9751281738281	698.07861328125	1011.884338378906	300.1241760253906	677.6342163085938	1014.009033203125	41.19878387451172	570.077880859375	481.4064025878906	42.68174362182617	572.4931030273438	626.449462890625	12.07812976837158	395.2867736816406	41.32992172241211	81.73212432861328	488.9545593261719	260.9594421386719	50.95854568481445	614.3967895507812	40.36683654785156	76.28428649902344	574.17431640625	42.63642120361328	130.8701324462891	496.1811218261719	30.4520149230957	26.4215030670166	354.0978393554688	47.99444580078125	156.9044189453125	825.3765869140625	535.2169799804688	342.4786987304688	733.0010986328125	786.9176635742188	365.1878967285156	859.7660522460938	32.30684661865234	349.8798217773438	870.8960571289062	419.3236999511719	332.9661254882812	1071.424072265625	95.95079803466797	335.9569091796875	1023.309875488281	84.53090667724609	285.1532897949219	970.911376953125	41.23092651367188	388.5561218261719	812.2760009765625	37.3905143737793	277.9446411132812	
234	2.33	456.3252868652344	1033.858764648438	246.0922241210938	447.6352233886719	1044.861328125	123.8290863037109	455.9564208984375	1078.15869140625	186.5055847167969	734.743896484375	1271.855834960938	165.0631561279297	437.1221313476562	1241.285034179688	175.5782165527344	520.688720703125	1504.921997070312	154.4831848144531	714.8197631835938	1387.318969726562	155.4785766601562	446.8839416503906	1336.303100585938	270.3544921875	509.45361328125	1478.920288085938	53.82627868652344	585.7391967773438	1461.21435546875	-24.77398109436035	557.0517578125	1329.24365234375	-98.31024169921875	593.642822265625	1112.024047851562	-120.307502746582	541.4981689453125	1090.02587890625	-53.39547348022461	745.9780883789062	909.9122924804688	-67.32260131835938	676.818359375	869.83740234375	-116.4823684692383	630.2894897460938	1004.82080078125	-128.8942718505859	800.6832885742188	735.8983154296875	-35.52190399169922	713.23876953125	807.1505126953125	-106.9991149902344	776.6585083007812	836.3627319335938	-83.05874633789062	590.3428955078125	1480.829223632812	335.4066467285156	568.6134643554688	1415.758056640625	405.8240051269531	547.0205688476562	1126.03857421875	464.2827758789062	542.5355834960938	1117.584716796875	367.68505859375	712.8489990234375	919.6635131835938	440.6875915527344	641.1467895507812	888.2655639648438	482.12353515625	578.670166015625	1054.060424804688	480.4742126464844	764.9176025390625	742.2622680664062	411.1075439453125	755.168701171875	833.6756591796875	448.0058288574219	683.5748291015625	811.5569458007812	476.6632080078125	586.5718383789062	1640.802856445312	242.5349426269531	747.903564453125	1713.622192382812	114.5960464477539	752.8534545898438	1692.345458984375	242.5867309570312	572.0089111328125	1670.505249023438	108.9361343383789	545.2059326171875	984.3965454101562	-1.534499406814575	612.9432983398438	984.396484375	360.640380859375	689.292236328125	1012.847106933594	300.2031555175781	670.5770263671875	1014.733032226562	41.15032577514648	567.4917602539062	481.9486389160156	42.85782241821289	568.640625	626.9437866210938	12.01495742797852	395.3188171386719	41.27533721923828	81.96392059326172	487.7915344238281	260.9273681640625	51.23950958251953	614.4401245117188	40.32321548461914	76.30711364746094	574.2656860351562	42.53366851806641	131.0598449707031	496.265380859375	30.68091201782227	26.70287704467773	354.1974182128906	47.55313873291016	157.1877899169922	820.5110473632812	537.4117431640625	343.1241149902344	725.4883422851562	788.6204223632812	365.2188110351562	844.2289428710938	34.30998229980469	349.1934814453125	864.125244140625	420.4684143066406	334.1224060058594	1056.889404296875	95.25648498535156	340.9172973632812	1010.189270019531	83.85390472412109	288.8465270996094	954.054443359375	42.37461471557617	390.9928894042969	798.658447265625	39.39391326904297	276.0696411132812	
